<?xml version="1.0" encoding="utf-8"?>
<!-- Generator: Adobe Illustrator 24.1.1, SVG Export Plug-In . SVG Version: 6.00 Build 0)  -->
<svg version="1.1" id="Layer_1" xmlns="http://www.w3.org/2000/svg" xmlns:xlink="http://www.w3.org/1999/xlink" x="0px" y="0px"
	 viewBox="0 0 300 300" style="enable-background:new 0 0 300 300;" xml:space="preserve">
<style type="text/css">
	.st0{fill:#FFFFFF;}
</style>
<g>
	<path class="st0" d="M150,35c30.72,0,59.6,11.96,81.32,33.68S265,119.28,265,150s-11.96,59.6-33.68,81.32S180.72,265,150,265
		s-59.6-11.96-81.32-33.68S35,180.72,35,150s11.96-59.6,33.68-81.32S119.28,35,150,35 M150,0C67.16,0,0,67.16,0,150
		s67.16,150,150,150s150-67.16,150-150S232.84,0,150,0L150,0z"/>
	<path class="st0" d="M175.25,150.5l27.22-27.22c6.83-6.83,6.83-17.91,0-24.75c-6.83-6.83-17.91-6.83-24.75,0l-27.22,27.22
		l-27.22-27.22c-6.83-6.83-17.92-6.83-24.75,0c-6.83,6.83-6.83,17.91,0,24.75l27.22,27.22l-27.22,27.22
		c-6.83,6.83-6.83,17.91,0,24.75c3.42,3.42,7.9,5.13,12.37,5.13s8.96-1.71,12.37-5.13l27.22-27.22l27.22,27.22
		c3.42,3.42,7.9,5.13,12.37,5.13s8.96-1.71,12.37-5.13c6.83-6.83,6.83-17.91,0-24.75L175.25,150.5z"/>
</g>
</svg>
