<?xml version="1.0" encoding="UTF-8" standalone="no"?>
<!-- Generator: Adobe Illustrator 25.2.0, SVG Export Plug-In . SVG Version: 6.00 Build 0)  -->

<svg
   xmlns:dc="http://purl.org/dc/elements/1.1/"
   xmlns:cc="http://creativecommons.org/ns#"
   xmlns:rdf="http://www.w3.org/1999/02/22-rdf-syntax-ns#"
   xmlns:svg="http://www.w3.org/2000/svg"
   xmlns="http://www.w3.org/2000/svg"
   xmlns:sodipodi="http://sodipodi.sourceforge.net/DTD/sodipodi-0.dtd"
   xmlns:inkscape="http://www.inkscape.org/namespaces/inkscape"
   version="1.1"
   id="Layer_1"
   x="0px"
   y="0px"
   viewBox="0 0 2860 680"
   xml:space="preserve"
   sodipodi:docname="elfh_logo.svg"
   width="2860"
   height="680"
   inkscape:version="0.92.4 (5da689c313, 2019-01-14)"><metadata
   id="metadata3933"><rdf:RDF><cc:Work
       rdf:about=""><dc:format>image/svg+xml</dc:format><dc:type
         rdf:resource="http://purl.org/dc/dcmitype/StillImage" /><dc:title></dc:title></cc:Work></rdf:RDF></metadata><defs
   id="defs3931" /><sodipodi:namedview
   pagecolor="#ffffff"
   bordercolor="#666666"
   borderopacity="1"
   objecttolerance="10"
   gridtolerance="10"
   guidetolerance="10"
   inkscape:pageopacity="0"
   inkscape:pageshadow="2"
   inkscape:window-width="1920"
   inkscape:window-height="1137"
   id="namedview3929"
   showgrid="false"
   showguides="true"
   inkscape:guide-bbox="true"
   inkscape:zoom="0.5"
   inkscape:cx="1163.6779"
   inkscape:cy="325.77574"
   inkscape:window-x="-8"
   inkscape:window-y="-8"
   inkscape:window-maximized="1"
   inkscape:current-layer="Layer_1"><sodipodi:guide
     position="68.450704,551.40845"
     orientation="1,0"
     id="guide3935"
     inkscape:locked="false" /></sodipodi:namedview>
<style
   type="text/css"
   id="style3856">
	.st0{fill:#C10071;}
	.st1{fill:#003087;}
	.st2{fill:#0069B3;}
	.st3{fill:#00A7D6;}
	.st4{fill:#5DC9F1;}
	.st5{fill:#35BBED;}
</style>
<g
   id="g3926">
	<g
   id="g3866">
		<path
   d="m 250.29,341.72 c -14.98,5.41 -32.05,13.74 -67.01,13.74 -75.34,0 -109.88,-45.78 -109.88,-114.88 0,-62.85 39.54,-107.39 99.48,-107.39 70.76,0 93.65,51.61 93.65,119.87 H 115.02 c 0,42.04 32.88,70.76 69.93,70.76 25.81,0 55.77,-13.32 65.35,-21.23 v 39.13 z M 224.9,223.93 c 0,-32.46 -19.15,-59.1 -52.86,-59.1 -38.29,0 -54.11,31.63 -57.02,59.1 z"
   id="path3858"
   inkscape:connector-curvature="0" />
		<path
   d="m 298.99,38.29 h 39.12 v 312.17 h -39.12 z"
   id="path3860"
   inkscape:connector-curvature="0" />
		<path
   d="M 418.44,169.82 H 368.5 v -31.63 h 49.95 v -19.56 c 0,-51.61 13.32,-85.32 71.17,-85.32 9.99,0 18.31,1.25 26.22,2.5 l -1.66,31.63 c -4.58,-1.67 -12.07,-2.5 -18.73,-2.5 -33.71,0 -37.88,21.64 -37.88,50.36 v 22.89 h 56.19 v 31.63 H 457.57 V 350.46 H 418.45 V 169.82 Z"
   id="path3862"
   inkscape:connector-curvature="0" />
		<path
   d="m 546.64,38.29 h 39.12 v 130.28 h 0.83 c 14.15,-22.47 38.71,-35.38 68.26,-35.38 54.94,0 79.5,34.13 79.5,91.15 V 350.46 H 695.23 V 240.58 c 0,-49.53 -10.82,-73.67 -44.95,-75.76 -44.54,0 -64.52,35.8 -64.52,87.41 v 98.23 h -39.12 z"
   id="path3864"
   inkscape:connector-curvature="0" />
	</g>
	<g
   id="g3912">
		<path
   d="m 125.96,618.05 c -5.72,3.15 -12.26,4.79 -20.67,4.79 -19.86,0 -31.42,-11.44 -31.42,-31.19 0,-17.4 9.23,-31.77 27.92,-31.77 22.31,0 28.62,15.3 28.62,36.33 H 88.82 c 0.7,9.69 7.48,15.19 17.17,15.19 7.59,0 14.13,-2.8 19.97,-6.08 z m -10.51,-32.59 c -0.47,-7.59 -3.97,-14.13 -12.73,-14.13 -8.76,0 -13.2,6.08 -13.9,14.13 z"
   id="path3868"
   inkscape:connector-curvature="0" />
		<path
   d="m 142.27,533.84 h 15.65 v 87.6 h -15.65 z"
   id="path3870"
   inkscape:connector-curvature="0" />
		<path
   d="m 221.77,618.05 c -5.72,3.15 -12.26,4.79 -20.67,4.79 -19.86,0 -31.42,-11.44 -31.42,-31.19 0,-17.4 9.23,-31.77 27.92,-31.77 22.31,0 28.62,15.3 28.62,36.33 h -41.58 c 0.7,9.69 7.48,15.19 17.17,15.19 7.59,0 14.13,-2.8 19.97,-6.08 v 12.73 z m -10.51,-32.59 c -0.47,-7.59 -3.97,-14.13 -12.73,-14.13 -8.76,0 -13.2,6.08 -13.9,14.13 z"
   id="path3872"
   inkscape:connector-curvature="0" />
		<path
   d="m 240.06,564.44 c 6.07,-2.8 14.25,-4.56 20.91,-4.56 18.34,0 25.93,7.59 25.93,25.35 v 7.71 c 0,6.08 0.12,10.63 0.23,15.07 0.12,4.56 0.35,8.76 0.7,13.43 h -13.78 c -0.58,-3.15 -0.58,-7.13 -0.7,-8.99 h -0.23 c -3.62,6.66 -11.45,10.39 -18.57,10.39 -10.63,0 -21.02,-6.42 -21.02,-17.87 0,-8.99 4.32,-14.25 10.28,-17.17 5.96,-2.92 13.67,-3.5 20.21,-3.5 h 8.64 c 0,-9.69 -4.32,-12.97 -13.55,-12.97 -6.66,0 -13.31,2.57 -18.57,6.54 z m 18.34,46.96 c 4.79,0 8.53,-2.1 10.98,-5.38 2.57,-3.38 3.27,-7.71 3.27,-12.38 h -6.77 c -7.01,0 -17.4,1.17 -17.4,10.39 -0.01,5.15 4.31,7.37 9.92,7.37 z"
   id="path3874"
   inkscape:connector-curvature="0" />
		<path
   d="m 301.61,561.29 h 13.9 v 13.67 h 0.23 c 0.7,-5.61 7.13,-15.07 16.47,-15.07 1.52,0 3.15,0 4.79,0.47 v 15.77 c -1.4,-0.82 -4.2,-1.28 -7.01,-1.28 -12.73,0 -12.73,15.89 -12.73,24.53 v 22.08 h -15.65 z"
   id="path3876"
   inkscape:connector-curvature="0" />
		<path
   d="m 345.36,561.29 h 14.83 v 8.18 h 0.23 c 4.9,-6.89 11.56,-9.58 19.74,-9.58 14.25,0 20.44,10.05 20.44,23.6 v 37.96 h -15.65 v -32.12 c 0,-7.36 -0.12,-17.29 -10.16,-17.29 -11.33,0 -13.78,12.27 -13.78,19.98 v 29.43 h -15.65 z"
   id="path3878"
   inkscape:connector-curvature="0" />
		<path
   d="m 415.68,535.36 h 15.65 v 14.95 h -15.65 z m 0,25.93 h 15.65 v 60.15 h -15.65 z"
   id="path3880"
   inkscape:connector-curvature="0" />
		<path
   d="m 446.33,561.29 h 14.83 v 8.18 h 0.23 c 4.9,-6.89 11.56,-9.58 19.74,-9.58 14.25,0 20.44,10.05 20.44,23.6 v 37.96 h -15.65 v -32.12 c 0,-7.36 -0.12,-17.29 -10.16,-17.29 -11.33,0 -13.78,12.27 -13.78,19.98 v 29.43 h -15.65 z"
   id="path3882"
   inkscape:connector-curvature="0" />
		<path
   d="m 572.26,561.29 v 54.31 c 0,16.35 -6.54,31.77 -31.77,31.77 -6.19,0 -13.32,-0.93 -20.79,-4.09 l 1.28,-13.32 c 4.79,2.57 12.61,5.26 17.52,5.26 17.29,0 18.1,-12.96 18.1,-23.36 h -0.23 c -2.92,5.14 -9.93,9.58 -18.69,9.58 -17.75,0 -24.53,-14.25 -24.53,-30.37 0,-14.48 7.48,-31.19 25.46,-31.19 7.94,0 14.13,2.69 18.45,9.58 h 0.23 v -8.18 h 14.97 z m -15.65,29.43 c 0,-10.28 -3.97,-18.69 -13.08,-18.69 -10.63,0 -14.02,9.81 -14.02,19.04 0,8.18 4.32,18.22 13.31,18.22 9.82,0 13.79,-8.52 13.79,-18.57 z"
   id="path3884"
   inkscape:connector-curvature="0" />
		<path
   d="m 626.59,572.74 h -11.57 v -11.45 h 11.57 v -8.41 c 0,-12.03 6.77,-20.44 19.15,-20.44 3.97,0 8.41,0.58 11.45,1.28 l -1.28,12.97 c -1.4,-0.82 -3.39,-2.1 -6.78,-2.1 -5.26,0 -6.89,4.56 -6.89,9.23 v 7.48 h 13.67 v 11.45 h -13.67 v 48.71 h -15.65 z"
   id="path3886"
   inkscape:connector-curvature="0" />
		<path
   d="m 692.1,559.88 c 17.87,0 31.54,12.03 31.54,31.89 0,17.28 -11.56,31.07 -31.54,31.07 -19.86,0 -31.42,-13.78 -31.42,-31.07 0,-19.85 13.67,-31.89 31.42,-31.89 z m 0,50.82 c 12.03,0 15.18,-10.75 15.18,-20.79 0,-9.23 -4.9,-17.87 -15.18,-17.87 -10.16,0 -15.07,8.88 -15.07,17.87 0.01,9.92 3.16,20.79 15.07,20.79 z"
   id="path3888"
   inkscape:connector-curvature="0" />
		<path
   d="m 735.25,561.29 h 13.9 v 13.67 h 0.23 c 0.7,-5.61 7.13,-15.07 16.47,-15.07 1.52,0 3.15,0 4.79,0.47 v 15.77 c -1.4,-0.82 -4.2,-1.28 -7.01,-1.28 -12.73,0 -12.73,15.89 -12.73,24.53 v 22.08 h -15.65 z"
   id="path3890"
   inkscape:connector-curvature="0" />
		<path
   d="m 812.81,533.84 h 15.65 v 35.62 h 0.23 c 3.97,-5.84 10.75,-9.58 18.92,-9.58 14.25,0 20.44,10.05 20.44,23.6 v 37.96 H 852.4 v -32.12 c 0,-7.36 -0.12,-17.29 -10.16,-17.29 -11.33,0 -13.78,12.27 -13.78,19.98 v 29.43 h -15.65 z"
   id="path3892"
   inkscape:connector-curvature="0" />
		<path
   d="m 931.53,618.05 c -5.72,3.15 -12.26,4.79 -20.67,4.79 -19.86,0 -31.42,-11.44 -31.42,-31.19 0,-17.4 9.23,-31.77 27.92,-31.77 22.31,0 28.62,15.3 28.62,36.33 H 894.4 c 0.7,9.69 7.48,15.19 17.17,15.19 7.59,0 14.13,-2.8 19.97,-6.08 v 12.73 z m -10.51,-32.59 c -0.47,-7.59 -3.97,-14.13 -12.73,-14.13 -8.76,0 -13.2,6.08 -13.9,14.13 z"
   id="path3894"
   inkscape:connector-curvature="0" />
		<path
   d="m 949.82,564.44 c 6.07,-2.8 14.25,-4.56 20.91,-4.56 18.34,0 25.93,7.59 25.93,25.35 v 7.71 c 0,6.08 0.12,10.63 0.23,15.07 0.12,4.56 0.35,8.76 0.7,13.43 h -13.78 c -0.58,-3.15 -0.58,-7.13 -0.7,-8.99 h -0.23 c -3.62,6.66 -11.45,10.39 -18.57,10.39 -10.63,0 -21.02,-6.42 -21.02,-17.87 0,-8.99 4.32,-14.25 10.28,-17.17 5.96,-2.92 13.67,-3.5 20.21,-3.5 h 8.64 c 0,-9.69 -4.32,-12.97 -13.55,-12.97 -6.66,0 -13.31,2.57 -18.57,6.54 z m 18.34,46.96 c 4.79,0 8.53,-2.1 10.98,-5.38 2.57,-3.38 3.27,-7.71 3.27,-12.38 h -6.77 c -7.01,0 -17.4,1.17 -17.4,10.39 -0.01,5.15 4.31,7.37 9.92,7.37 z"
   id="path3896"
   inkscape:connector-curvature="0" />
		<path
   d="m 1011.3,533.84 h 15.65 v 87.6 h -15.65 z"
   id="path3898"
   inkscape:connector-curvature="0" />
		<path
   d="m 1046.98,572.74 h -11.57 v -11.45 h 11.57 v -12.03 l 15.65,-5.02 v 17.05 h 13.9 v 11.45 h -13.9 v 28.03 c 0,5.14 1.4,9.93 7.36,9.93 2.8,0 5.49,-0.58 7.13,-1.64 l 0.47,12.38 c -3.27,0.93 -6.89,1.4 -11.56,1.4 -12.26,0 -19.04,-7.59 -19.04,-19.5 v -30.6 z"
   id="path3900"
   inkscape:connector-curvature="0" />
		<path
   d="m 1086.74,533.84 h 15.65 v 35.62 h 0.23 c 3.97,-5.84 10.75,-9.58 18.92,-9.58 14.25,0 20.44,10.05 20.44,23.6 v 37.96 h -15.65 v -32.12 c 0,-7.36 -0.12,-17.29 -10.16,-17.29 -11.33,0 -13.78,12.27 -13.78,19.98 v 29.43 h -15.65 z"
   id="path3902"
   inkscape:connector-curvature="0" />
		<path
   d="m 1196.24,574.25 c -2.8,-1.28 -5.84,-2.22 -10.63,-2.22 -9.69,0 -15.89,7.71 -15.89,19.04 0,11.1 5.26,19.63 16.24,19.63 4.44,0 9.34,-1.64 12.03,-2.81 l 0.7,12.97 c -4.55,1.4 -9.23,1.98 -15.65,1.98 -19.74,0 -29.67,-13.43 -29.67,-31.77 0,-17.4 10.28,-31.19 29.08,-31.19 6.31,0 10.86,0.7 15.18,1.99 z"
   id="path3904"
   inkscape:connector-curvature="0" />
		<path
   d="m 1211.74,564.44 c 6.07,-2.8 14.25,-4.56 20.91,-4.56 18.34,0 25.93,7.59 25.93,25.35 v 7.71 c 0,6.08 0.12,10.63 0.23,15.07 0.12,4.56 0.35,8.76 0.7,13.43 h -13.78 c -0.58,-3.15 -0.58,-7.13 -0.7,-8.99 h -0.23 c -3.62,6.66 -11.45,10.39 -18.57,10.39 -10.63,0 -21.02,-6.42 -21.02,-17.87 0,-8.99 4.32,-14.25 10.28,-17.17 5.96,-2.92 13.67,-3.5 20.21,-3.5 h 8.64 c 0,-9.69 -4.32,-12.97 -13.55,-12.97 -6.66,0 -13.31,2.57 -18.57,6.54 z m 18.34,46.96 c 4.79,0 8.53,-2.1 10.98,-5.38 2.57,-3.38 3.27,-7.71 3.27,-12.38 h -6.77 c -7.01,0 -17.4,1.17 -17.4,10.39 -0.01,5.15 4.31,7.37 9.92,7.37 z"
   id="path3906"
   inkscape:connector-curvature="0" />
		<path
   d="m 1273.29,561.29 h 13.9 v 13.67 h 0.23 c 0.7,-5.61 7.13,-15.07 16.47,-15.07 1.52,0 3.15,0 4.79,0.47 v 15.77 c -1.4,-0.82 -4.2,-1.28 -7.01,-1.28 -12.73,0 -12.73,15.89 -12.73,24.53 v 22.08 h -15.65 z"
   id="path3908"
   inkscape:connector-curvature="0" />
		<path
   d="m 1366.05,618.05 c -5.72,3.15 -12.26,4.79 -20.67,4.79 -19.86,0 -31.42,-11.44 -31.42,-31.19 0,-17.4 9.23,-31.77 27.92,-31.77 22.31,0 28.62,15.3 28.62,36.33 h -41.58 c 0.7,9.69 7.48,15.19 17.17,15.19 7.59,0 14.13,-2.8 19.97,-6.08 v 12.73 z m -10.51,-32.59 c -0.47,-7.59 -3.97,-14.13 -12.73,-14.13 -8.76,0 -13.2,6.08 -13.9,14.13 z"
   id="path3910"
   inkscape:connector-curvature="0" />
	</g>
	<rect
   x="68.769997"
   y="421.53"
   class="st0"
   width="390.91"
   height="39.130001"
   id="rect3914"
   style="fill:#c10071" />
	<rect
   x="459.67999"
   y="421.53"
   class="st1"
   width="325.29001"
   height="39.130001"
   id="rect3916"
   style="fill:#003087" />
	<rect
   x="784.96997"
   y="421.53"
   class="st2"
   width="195.17"
   height="39.130001"
   id="rect3918"
   style="fill:#0069b3" />
	<rect
   x="980.14001"
   y="421.53"
   class="st3"
   width="195.17"
   height="39.130001"
   id="rect3920"
   style="fill:#00a7d6" />
	<rect
   x="1305.4301"
   y="421.53"
   class="st4"
   width="65.059998"
   height="39.130001"
   id="rect3922"
   style="fill:#5dc9f1" />
	<rect
   x="1175.3101"
   y="421.53"
   class="st5"
   width="130.11"
   height="39.130001"
   id="rect3924"
   style="fill:#35bbed" />
</g>
</svg>