<?xml version="1.0" encoding="utf-8"?>
<!-- Generator: Adobe Illustrator 25.0.0, SVG Export Plug-In . SVG Version: 6.00 Build 0)  -->
<svg version="1.1" id="Layer_1" xmlns="http://www.w3.org/2000/svg" xmlns:xlink="http://www.w3.org/1999/xlink" x="0px" y="0px"
	 viewBox="0 0 1210 200" style="enable-background:new 0 0 1210 200;" xml:space="preserve">
<style type="text/css">
	.st0{fill:#FFFFFF;}
	.st1{fill:#C10071;}
	.st2{fill:#003087;}
	.st3{fill:#0069B3;}
	.st4{fill:#00A7D6;}
	.st5{fill:#5DC9F1;}
	.st6{fill:#35BBED;}
	.st7{fill:#006AB4;}
	.st8{enable-background:new    ;}
</style>
<rect x="-0.1" y="0.1" class="st0" width="1210" height="200"/>
<g id="ELF_logo_2_">
	<g>
		<path d="M101,101.3c-3.3,1.2-7,3-14.6,3c-16.4,0-24-10-24-25.1c0-13.7,8.6-23.4,21.7-23.4c15.4,0,20.4,11.3,20.4,26.2H71.4
			c0,9.2,7.2,15.4,15.3,15.4c5.6,0,12.2-2.9,14.3-4.6V101.3z M95.4,75.6c0-7.1-4.2-12.9-11.5-12.9c-8.4,0-11.8,6.9-12.4,12.9H95.4z"
			/>
		<path d="M111.6,35.1h8.5v68.1h-8.5V35.1z"/>
		<path d="M137.7,63.8h-10.9v-6.9h10.9v-4.3c0-11.3,2.9-18.6,15.5-18.6c2.2,0,4,0.3,5.7,0.5l-0.4,6.9c-1-0.4-2.6-0.5-4.1-0.5
			c-7.4,0-8.3,4.7-8.3,11v5h12.3v6.9h-12.3v39.4h-8.5V63.8z"/>
		<path d="M165.7,35.1h8.5v28.4h0.2c3.1-4.9,8.4-7.7,14.9-7.7c12,0,17.4,7.5,17.4,19.9v27.5h-8.5v-24c0-10.8-2.4-16.1-9.8-16.5
			c-9.7,0-14.1,7.8-14.1,19.1v21.4h-8.5V35.1z"/>
	</g>
	<g>
		<path d="M73.8,161.7c-1.2,0.7-2.7,1-4.5,1c-4.3,0-6.9-2.5-6.9-6.8c0-3.8,2-6.9,6.1-6.9c4.9,0,6.2,3.3,6.2,7.9h-9.1
			c0.2,2.1,1.6,3.3,3.7,3.3c1.7,0,3.1-0.6,4.4-1.3V161.7z M71.5,154.5c-0.1-1.7-0.9-3.1-2.8-3.1c-1.9,0-2.9,1.3-3,3.1H71.5z"/>
		<path d="M77.4,143.3h3.4v19.1h-3.4V143.3z"/>
		<path d="M94.7,161.7c-1.2,0.7-2.7,1-4.5,1c-4.3,0-6.9-2.5-6.9-6.8c0-3.8,2-6.9,6.1-6.9c4.9,0,6.2,3.3,6.2,7.9h-9.1
			c0.2,2.1,1.6,3.3,3.7,3.3c1.7,0,3.1-0.6,4.4-1.3V161.7z M92.4,154.5c-0.1-1.7-0.9-3.1-2.8-3.1c-1.9,0-2.9,1.3-3,3.1H92.4z"/>
		<path d="M98.7,149.9c1.3-0.6,3.1-1,4.6-1c4,0,5.7,1.7,5.7,5.5v1.7c0,1.3,0,2.3,0.1,3.3c0,1,0.1,1.9,0.2,2.9h-3
			c-0.1-0.7-0.1-1.6-0.2-2h-0.1c-0.8,1.5-2.5,2.3-4.1,2.3c-2.3,0-4.6-1.4-4.6-3.9c0-2,0.9-3.1,2.2-3.7s3-0.8,4.4-0.8h1.9
			c0-2.1-0.9-2.8-3-2.8c-1.5,0-2.9,0.6-4.1,1.4L98.7,149.9z M102.7,160.2c1,0,1.9-0.5,2.4-1.2c0.6-0.7,0.7-1.7,0.7-2.7h-1.5
			c-1.5,0-3.8,0.3-3.8,2.3C100.6,159.7,101.5,160.2,102.7,160.2z"/>
		<path d="M112.2,149.3h3v3h0.1c0.2-1.2,1.6-3.3,3.6-3.3c0.3,0,0.7,0,1,0.1v3.4c-0.3-0.2-0.9-0.3-1.5-0.3c-2.8,0-2.8,3.5-2.8,5.4
			v4.8h-3.4V149.3z"/>
		<path d="M121.7,149.3h3.2v1.8h0.1c1.1-1.5,2.5-2.1,4.3-2.1c3.1,0,4.5,2.2,4.5,5.2v8.3h-3.4v-7c0-1.6,0-3.8-2.2-3.8
			c-2.5,0-3,2.7-3,4.4v6.4h-3.4V149.3z"/>
		<path d="M137.1,143.6h3.4v3.3h-3.4V143.6z M137.1,149.3h3.4v13.1h-3.4V149.3z"/>
		<path d="M143.8,149.3h3.2v1.8h0.1c1.1-1.5,2.5-2.1,4.3-2.1c3.1,0,4.5,2.2,4.5,5.2v8.3h-3.4v-7c0-1.6,0-3.8-2.2-3.8
			c-2.5,0-3,2.7-3,4.4v6.4h-3.4V149.3z"/>
		<path d="M171.2,149.3v11.9c0,3.6-1.4,6.9-6.9,6.9c-1.4,0-2.9-0.2-4.5-0.9l0.3-2.9c1,0.6,2.8,1.1,3.8,1.1c3.8,0,4-2.8,4-5.1h-0.1
			c-0.6,1.1-2.2,2.1-4.1,2.1c-3.9,0-5.4-3.1-5.4-6.6c0-3.2,1.6-6.8,5.6-6.8c1.7,0,3.1,0.6,4,2.1h0.1v-1.8H171.2z M167.8,155.7
			c0-2.2-0.9-4.1-2.9-4.1c-2.3,0-3.1,2.1-3.1,4.2c0,1.8,0.9,4,2.9,4C167,159.7,167.8,157.9,167.8,155.7z"/>
		<path d="M183.1,151.8h-2.5v-2.5h2.5v-1.8c0-2.6,1.5-4.5,4.2-4.5c0.9,0,1.8,0.1,2.5,0.3l-0.3,2.8c-0.3-0.2-0.7-0.5-1.5-0.5
			c-1.1,0-1.5,1-1.5,2v1.6h3v2.5h-3v10.6h-3.4V151.8z"/>
		<path d="M197.4,149c3.9,0,6.9,2.6,6.9,7c0,3.8-2.5,6.8-6.9,6.8c-4.3,0-6.9-3-6.9-6.8C190.6,151.6,193.5,149,197.4,149z M197.4,160
			c2.6,0,3.3-2.3,3.3-4.5c0-2-1.1-3.9-3.3-3.9c-2.2,0-3.3,1.9-3.3,3.9C194.1,157.7,194.8,160,197.4,160z"/>
		<path d="M206.8,149.3h3v3h0.1c0.2-1.2,1.6-3.3,3.6-3.3c0.3,0,0.7,0,1,0.1v3.4c-0.3-0.2-0.9-0.3-1.5-0.3c-2.8,0-2.8,3.5-2.8,5.4
			v4.8h-3.4V149.3z"/>
		<path d="M223.8,143.3h3.4v7.8h0.1c0.9-1.3,2.3-2.1,4.1-2.1c3.1,0,4.5,2.2,4.5,5.2v8.3h-3.4v-7c0-1.6,0-3.8-2.2-3.8
			c-2.5,0-3,2.7-3,4.4v6.4h-3.4V143.3z"/>
		<path d="M249.7,161.7c-1.2,0.7-2.7,1-4.5,1c-4.3,0-6.9-2.5-6.9-6.8c0-3.8,2-6.9,6.1-6.9c4.9,0,6.2,3.3,6.2,7.9h-9.1
			c0.2,2.1,1.6,3.3,3.7,3.3c1.7,0,3.1-0.6,4.4-1.3V161.7z M247.4,154.5c-0.1-1.7-0.9-3.1-2.8-3.1c-1.9,0-2.9,1.3-3,3.1H247.4z"/>
		<path d="M253.7,149.9c1.3-0.6,3.1-1,4.6-1c4,0,5.7,1.7,5.7,5.5v1.7c0,1.3,0,2.3,0.1,3.3c0,1,0.1,1.9,0.2,2.9h-3
			c-0.1-0.7-0.1-1.6-0.2-2h-0.1c-0.8,1.5-2.5,2.3-4.1,2.3c-2.3,0-4.6-1.4-4.6-3.9c0-2,0.9-3.1,2.2-3.7c1.3-0.6,3-0.8,4.4-0.8h1.9
			c0-2.1-0.9-2.8-3-2.8c-1.5,0-2.9,0.6-4.1,1.4L253.7,149.9z M257.7,160.2c1,0,1.9-0.5,2.4-1.2c0.6-0.7,0.7-1.7,0.7-2.7h-1.5
			c-1.5,0-3.8,0.3-3.8,2.3C255.5,159.7,256.4,160.2,257.7,160.2z"/>
		<path d="M267.1,143.3h3.4v19.1h-3.4V143.3z"/>
		<path d="M274.9,151.8h-2.5v-2.5h2.5v-2.6l3.4-1.1v3.7h3v2.5h-3v6.1c0,1.1,0.3,2.2,1.6,2.2c0.6,0,1.2-0.1,1.6-0.4l0.1,2.7
			c-0.7,0.2-1.5,0.3-2.5,0.3c-2.7,0-4.2-1.7-4.2-4.3V151.8z"/>
		<path d="M283.6,143.3h3.4v7.8h0.1c0.9-1.3,2.3-2.1,4.1-2.1c3.1,0,4.5,2.2,4.5,5.2v8.3h-3.4v-7c0-1.6,0-3.8-2.2-3.8
			c-2.5,0-3,2.7-3,4.4v6.4h-3.4V143.3z"/>
		<path d="M307.5,152.1c-0.6-0.3-1.3-0.5-2.3-0.5c-2.1,0-3.5,1.7-3.5,4.2c0,2.4,1.1,4.3,3.5,4.3c1,0,2-0.4,2.6-0.6l0.2,2.8
			c-1,0.3-2,0.4-3.4,0.4c-4.3,0-6.5-2.9-6.5-6.9c0-3.8,2.2-6.8,6.3-6.8c1.4,0,2.4,0.2,3.3,0.4L307.5,152.1z"/>
		<path d="M310.8,149.9c1.3-0.6,3.1-1,4.6-1c4,0,5.7,1.7,5.7,5.5v1.7c0,1.3,0,2.3,0.1,3.3c0,1,0.1,1.9,0.2,2.9h-3
			c-0.1-0.7-0.1-1.6-0.2-2h-0.1c-0.8,1.5-2.5,2.3-4.1,2.3c-2.3,0-4.6-1.4-4.6-3.9c0-2,0.9-3.1,2.2-3.7c1.3-0.6,3-0.8,4.4-0.8h1.9
			c0-2.1-0.9-2.8-3-2.8c-1.5,0-2.9,0.6-4.1,1.4L310.8,149.9z M314.8,160.2c1,0,1.9-0.5,2.4-1.2c0.6-0.7,0.7-1.7,0.7-2.7h-1.5
			c-1.5,0-3.8,0.3-3.8,2.3C312.7,159.7,313.6,160.2,314.8,160.2z"/>
		<path d="M324.3,149.3h3v3h0.1c0.2-1.2,1.6-3.3,3.6-3.3c0.3,0,0.7,0,1,0.1v3.4c-0.3-0.2-0.9-0.3-1.5-0.3c-2.8,0-2.8,3.5-2.8,5.4
			v4.8h-3.4V149.3z"/>
		<path d="M344.5,161.7c-1.2,0.7-2.7,1-4.5,1c-4.3,0-6.9-2.5-6.9-6.8c0-3.8,2-6.9,6.1-6.9c4.9,0,6.2,3.3,6.2,7.9h-9.1
			c0.2,2.1,1.6,3.3,3.7,3.3c1.7,0,3.1-0.6,4.4-1.3V161.7z M342.2,154.5c-0.1-1.7-0.9-3.1-2.8-3.1c-1.9,0-2.9,1.3-3,3.1H342.2z"/>
	</g>
	<rect x="61.3" y="118.8" class="st1" width="85.3" height="8.5"/>
	<rect x="146.7" y="118.8" class="st2" width="71" height="8.5"/>
	<rect x="217.7" y="118.8" class="st3" width="42.6" height="8.5"/>
	<rect x="260.3" y="118.8" class="st4" width="42.6" height="8.5"/>
	<rect x="331.3" y="118.8" class="st5" width="14.2" height="8.5"/>
	<rect x="302.9" y="118.8" class="st6" width="28.4" height="8.5"/>
</g>
<g id="Live_text_-_Editable_2_">
	<g>
		<rect x="1015.1" y="49.8" class="st0" width="132.7" height="51.4"/>
		<g>
			<path class="st7" d="M1146.1,54.4l-2.9,8.9c-2.3-1.1-5.5-2-9.9-2c-4.8,0-8.6,0.7-8.6,4.3c0,6.3,17.4,4,17.4,17.6
				c0,12.3-11.5,15.5-21.9,15.5c-4.6,0-10-1.1-13.9-2.3l2.8-9.1c2.4,1.6,7.1,2.5,11,2.5c3.7,0,9.6-0.7,9.6-5.3
				c0-7.2-17.4-4.5-17.4-17.1c0-11.6,10.2-15,20-15C1137.9,52.4,1143.1,53,1146.1,54.4 M1111.5,53.2l-9.3,44.7h-12l4-19.1H1080
				l-4,19.1h-12l9.3-44.7h12l-3.5,17.1h14.2l3.5-17.1C1099.5,53.2,1111.5,53.2,1111.5,53.2z M1068.9,53.2l-9.5,44.7h-14.9l-9.4-30.9
				h-0.1l-6.3,30.9h-11.3l9.7-44.7h15l9.2,31h0.1l6.3-31C1057.6,53.2,1068.9,53.2,1068.9,53.2z M1151.3,47.9h-137.9v55.5h137.9V47.9
				z"/>
		</g>
	</g>
	<g class="st8">
		<path d="M680.6,121.3h5.5v11h11v-11h5.5v27.4h-5.5v-12h-11v12h-5.5V121.3z"/>
		<path d="M724.6,147.5c-1.9,1-4.1,1.6-6.9,1.6c-6.7,0-10.5-3.9-10.5-10.4c0-5.8,3.1-10.6,9.3-10.6c7.5,0,9.6,5.2,9.6,12.2h-14
			c0.3,3.3,2.5,5.1,5.7,5.1c2.5,0,4.8-0.9,6.7-2V147.5z M721.1,136.5c-0.1-2.5-1.3-4.8-4.2-4.8c-2.9,0-4.4,2-4.6,4.8H721.1z"/>
		<path d="M731.2,129.5c2-0.9,4.8-1.5,7-1.5c6.1,0,8.7,2.5,8.7,8.5v2.6c0,2,0.1,3.6,0.1,5c0.1,1.5,0.1,2.9,0.3,4.5h-4.6
			c-0.2-1-0.2-2.4-0.3-3h-0.1c-1.2,2.2-3.9,3.5-6.2,3.5c-3.6,0-7.1-2.2-7.1-6c0-3,1.4-4.8,3.5-5.7s4.6-1.2,6.8-1.2h2.9
			c0-3.3-1.4-4.4-4.6-4.4c-2.2,0-4.4,0.8-6.2,2.2L731.2,129.5z M737.3,145.3c1.6,0,2.9-0.7,3.7-1.8c0.8-1.1,1.1-2.6,1.1-4.2h-2.3
			c-2.4,0-5.8,0.4-5.8,3.5C734,144.5,735.4,145.3,737.3,145.3z"/>
		<path d="M752.1,119.2h5.2v29.4h-5.2V119.2z"/>
		<path d="M764.6,132.3h-3.9v-3.9h3.9v-4l5.2-1.7v5.7h4.6v3.9h-4.6v9.4c0,1.7,0.5,3.3,2.5,3.3c0.9,0,1.8-0.2,2.4-0.5l0.1,4.2
			c-1.1,0.3-2.3,0.5-3.9,0.5c-4.1,0-6.4-2.5-6.4-6.5V132.3z"/>
		<path d="M778.2,119.2h5.2v11.9h0.1c1.3-2,3.6-3.2,6.3-3.2c4.8,0,6.9,3.4,6.9,7.9v12.7h-5.2v-10.8c0-2.5-0.1-5.8-3.4-5.8
			c-3.8,0-4.6,4.1-4.6,6.7v9.9h-5.2V119.2L778.2,119.2z"/>
		<path d="M813.4,121.3h16.1v4.3h-10.6v6.7h9.7v4.3h-9.7v7.7h10.7v4.3h-16.2L813.4,121.3L813.4,121.3z"/>
		<path d="M848.1,146.3L848.1,146.3c-1.6,2-3.8,2.7-6.3,2.7c-6.2,0-8.5-5.1-8.5-10.6s2.3-10.5,8.5-10.5c2.6,0,4.4,0.9,6,2.8h0.1
			v-11.6h5.2v29.4h-5.1L848.1,146.3L848.1,146.3z M843.4,145c3.5,0,4.6-3.7,4.6-6.5c0-2.8-1.3-6.4-4.7-6.4s-4.4,3.7-4.4,6.4
			C838.9,141.2,839.9,145,843.4,145z"/>
		<path d="M877.2,148.6h-5v-2.7h-0.1c-1.6,2-3.9,3.2-6.6,3.2c-4.8,0-6.9-3.4-6.9-7.9v-12.7h5.2v10.8c0,2.5,0.1,5.8,3.4,5.8
			c3.8,0,4.6-4.1,4.6-6.7v-9.9h5.2V148.6z"/>
		<path d="M895.7,132.8c-0.9-0.5-2-0.7-3.6-0.7c-3.3,0-5.4,2.6-5.4,6.4c0,3.7,1.8,6.6,5.4,6.6c1.5,0,3.1-0.5,4-0.9l0.3,4.4
			c-1.5,0.5-3.1,0.7-5.2,0.7c-6.6,0-9.9-4.5-9.9-10.6c0-5.8,3.5-10.4,9.7-10.4c2.1,0,3.7,0.3,5.1,0.7L895.7,132.8z"/>
		<path d="M900.9,129.5c2-0.9,4.8-1.5,7-1.5c6.1,0,8.7,2.5,8.7,8.5v2.6c0,2,0.1,3.6,0.1,5c0.1,1.5,0.1,2.9,0.3,4.5h-4.6
			c-0.2-1-0.2-2.4-0.3-3h-0.1c-1.2,2.2-3.9,3.5-6.2,3.5c-3.6,0-7.1-2.2-7.1-6c0-3,1.4-4.8,3.5-5.7c2-1,4.6-1.2,6.8-1.2h2.9
			c0-3.3-1.4-4.4-4.6-4.4c-2.2,0-4.4,0.8-6.2,2.2L900.9,129.5z M907,145.3c1.6,0,2.9-0.7,3.7-1.8c0.8-1.1,1.1-2.6,1.1-4.2h-2.3
			c-2.4,0-5.8,0.4-5.8,3.5C903.7,144.5,905.1,145.3,907,145.3z"/>
		<path d="M923.5,132.3h-3.9v-3.9h3.9v-4l5.2-1.7v5.7h4.6v3.9h-4.6v9.4c0,1.7,0.5,3.3,2.5,3.3c0.9,0,1.8-0.2,2.4-0.5l0.1,4.2
			c-1.1,0.3-2.3,0.5-3.9,0.5c-4.1,0-6.4-2.5-6.4-6.5L923.5,132.3L923.5,132.3z"/>
		<path d="M937.1,119.8h5.2v5h-5.2V119.8z M937.1,128.4h5.2v20.2h-5.2V128.4z"/>
		<path d="M957.2,128c6,0,10.6,4,10.6,10.7c0,5.8-3.9,10.4-10.6,10.4c-6.7,0-10.5-4.6-10.5-10.4C946.6,132,951.2,128,957.2,128z
			 M957.2,145c4,0,5.1-3.6,5.1-7c0-3.1-1.6-6-5.1-6c-3.4,0-5,3-5,6C952.1,141.4,953.1,145,957.2,145z"/>
		<path d="M971.8,128.4h5v2.7h0.1c1.6-2.3,3.9-3.2,6.6-3.2c4.8,0,6.9,3.4,6.9,7.9v12.7h-5.2v-10.8c0-2.5-0.1-5.8-3.4-5.8
			c-3.8,0-4.6,4.1-4.6,6.7v9.9h-5.2L971.8,128.4L971.8,128.4z"/>
		<path d="M1007.1,121.3h16.1v4.3h-10.6v6.7h9.8v4.3h-9.8v7.7h10.7v4.3h-16.2V121.3L1007.1,121.3z"/>
		<path d="M1028.4,128.4h5v2.7h0.1c1.6-2.3,3.9-3.2,6.6-3.2c4.8,0,6.9,3.4,6.9,7.9v12.7h-5.2v-10.8c0-2.5-0.1-5.8-3.4-5.8
			c-3.8,0-4.6,4.1-4.6,6.7v9.9h-5.2V128.4L1028.4,128.4z"/>
		<path d="M1070.9,128.4v18.2c0,5.5-2.2,10.6-10.6,10.6c-2.1,0-4.4-0.3-7-1.4l0.5-4.4c1.6,0.8,4.2,1.8,5.9,1.8
			c5.8,0,6.1-4.4,6.1-7.8h-0.1c-1,1.7-3.3,3.2-6.3,3.2c-5.9,0-8.2-4.8-8.2-10.2c0-4.8,2.5-10.4,8.6-10.4c2.7,0,4.8,0.9,6.2,3.2h0.1
			v-2.7L1070.9,128.4L1070.9,128.4z M1065.7,138.3c0-3.5-1.3-6.3-4.4-6.3c-3.6,0-4.7,3.3-4.7,6.4c0,2.7,1.4,6.1,4.4,6.1
			C1064.3,144.6,1065.7,141.7,1065.7,138.3z"/>
		<path d="M1076.4,119.2h5.2v29.4h-5.2V119.2z"/>
		<path d="M1088,129.5c2-0.9,4.8-1.5,7-1.5c6.1,0,8.7,2.5,8.7,8.5v2.6c0,2,0.1,3.6,0.1,5c0.1,1.5,0.1,2.9,0.3,4.5h-4.6
			c-0.2-1-0.2-2.4-0.3-3h-0.1c-1.2,2.2-3.9,3.5-6.2,3.5c-3.6,0-7.1-2.2-7.1-6c0-3,1.4-4.8,3.5-5.7s4.6-1.2,6.8-1.2h2.9
			c0-3.3-1.4-4.4-4.6-4.4c-2.2,0-4.4,0.8-6.2,2.2L1088,129.5z M1094.2,145.3c1.6,0,2.9-0.7,3.7-1.8c0.8-1.1,1.1-2.6,1.1-4.2h-2.3
			c-2.4,0-5.8,0.4-5.8,3.5C1090.9,144.5,1092.4,145.3,1094.2,145.3z"/>
		<path d="M1108.9,128.4h5v2.7h0.1c1.6-2.3,3.9-3.2,6.6-3.2c4.8,0,6.9,3.4,6.9,7.9v12.7h-5.2v-10.8c0-2.5-0.1-5.8-3.4-5.8
			c-3.8,0-4.6,4.1-4.6,6.7v9.9h-5.2V128.4L1108.9,128.4z"/>
		<path d="M1146.3,146.3L1146.3,146.3c-1.6,2-3.8,2.7-6.3,2.7c-6.2,0-8.5-5.1-8.5-10.6s2.3-10.5,8.5-10.5c2.6,0,4.4,0.9,6,2.8h0.1
			v-11.6h5.2v29.4h-5.1L1146.3,146.3L1146.3,146.3z M1141.5,145c3.5,0,4.6-3.7,4.6-6.5c0-2.8-1.3-6.4-4.7-6.4s-4.4,3.7-4.4,6.4
			C1137.1,141.2,1138.1,145,1141.5,145z"/>
	</g>
</g>
</svg>
