<?xml version="1.0" encoding="UTF-8" standalone="no"?>
<!-- Generator: Adobe Illustrator 25.2.0, SVG Export Plug-In . SVG Version: 6.00 Build 0)  -->

<svg
   xmlns:dc="http://purl.org/dc/elements/1.1/"
   xmlns:cc="http://creativecommons.org/ns#"
   xmlns:rdf="http://www.w3.org/1999/02/22-rdf-syntax-ns#"
   xmlns:svg="http://www.w3.org/2000/svg"
   xmlns="http://www.w3.org/2000/svg"
   xmlns:sodipodi="http://sodipodi.sourceforge.net/DTD/sodipodi-0.dtd"
   xmlns:inkscape="http://www.inkscape.org/namespaces/inkscape"
   version="1.1"
   id="Layer_1"
   x="0px"
   y="0px"
   viewBox="0 0 2860 680"
   xml:space="preserve"
   sodipodi:docname="elfh_logo.svg"
   width="2860"
   height="680"
   inkscape:version="0.92.4 (5da689c313, 2019-01-14)"><metadata
   id="metadata3933"><rdf:RDF><cc:Work
       rdf:about=""><dc:format>image/svg+xml</dc:format><dc:type
         rdf:resource="http://purl.org/dc/dcmitype/StillImage" /><dc:title></dc:title></cc:Work></rdf:RDF></metadata><defs
   id="defs3931" /><sodipodi:namedview
   pagecolor="#ffffff"
   bordercolor="#666666"
   borderopacity="1"
   objecttolerance="10"
   gridtolerance="10"
   guidetolerance="10"
   inkscape:pageopacity="0"
   inkscape:pageshadow="2"
   inkscape:window-width="1920"
   inkscape:window-height="1137"
   id="namedview3929"
   showgrid="false"
   showguides="true"
   inkscape:guide-bbox="true"
   inkscape:zoom="0.5"
   inkscape:cx="822.67789"
   inkscape:cy="325.77574"
   inkscape:window-x="-8"
   inkscape:window-y="-8"
   inkscape:window-maximized="1"
   inkscape:current-layer="Layer_1"><sodipodi:guide
     position="68.450704,551.40845"
     orientation="1,0"
     id="guide3935"
     inkscape:locked="false" /></sodipodi:namedview>
<style
   type="text/css"
   id="style3856">
	.st0{fill:#C10071;}
	.st1{fill:#003087;}
	.st2{fill:#0069B3;}
	.st3{fill:#00A7D6;}
	.st4{fill:#5DC9F1;}
	.st5{fill:#35BBED;}
</style>
<path
   d="m 79.96323,344.78856 h 758.9045 V 51.01107 H 79.96323 v 293.77749"
   style="fill:#ffffff;fill-opacity:1;fill-rule:nonzero;stroke:none;stroke-width:0.37333331"
   id="path14"
   inkscape:connector-curvature="0" /><path
   d="M 859.2256,40.17695 H 70.81655 V 357.65848 H 859.2256 Z m -471.41545,30.632 -54.432,255.54068 h -85.4112 l -53.6928,-176.82336 h -0.728 L 157.82563,326.34963 H 93.05231 L 147.91735,70.80895 h 85.7024 l 52.63253,177.20265 h 0.72427 L 323.03683,70.80895 Z m 244.28318,0 -53.36053,255.54068 h -68.7792 l 22.81068,-109.44791 h -81.3456 L 428.5968,326.34963 h -68.7792 l 53.368,-255.54068 h 68.7792 L 461.76,168.57 h 81.30455 l 20.2496,-97.76105 z m 197.6016,6.97012 -16.57973,50.8816 c -13.2384,-6.2048 -31.2816,-11.68535 -56.6496,-11.68535 -27.21227,0 -49.3024,3.9872 -49.3024,24.52055 0,36.21333 99.7136,22.7024 99.7136,100.31465 0,70.64103 -65.8784,88.96647 -125.47732,88.96647 -26.49175,0 -57.03788,-6.25931 -79.464,-13.22871 l 16.19147,-51.98256 c 13.58185,8.8032 40.84638,14.66828 63.27253,14.66828 21.3696,0 54.8128,-4.0432 54.8128,-30.39308 0,-41.01812 -99.71735,-25.63305 -99.71735,-97.71625 0,-65.93067 58.15415,-85.69492 114.4528,-85.69492 31.66615,0 61.44695,3.31892 78.7472,11.34932"
   style="fill:#196fc1;fill-opacity:1;fill-rule:nonzero;stroke:none;stroke-width:0.37333331"
   id="path16"
   inkscape:connector-curvature="0" />
<g
   id="g18"
   transform="matrix(3.7333332,0,0,-3.7333332,53.52003,666.20092)"><g
     aria-label="Health Education England"
     transform="matrix(1,0,0,-1,0,13.3211)"
     id="text22"
     style="font-variant:normal;font-weight:bold;font-size:60px;font-family:Frutiger;-inkscape-font-specification:Frutiger-Bold;writing-mode:lr-tb;fill:#231f20;fill-opacity:1;fill-rule:nonzero;stroke:none"><path
       d="M 5.5078125,-43.740234 H 16.787109 v 16.669922 H 33.427734 V -43.740234 H 44.707031 V 0 H 33.427734 V -18.544922 H 16.787109 V 0 H 5.5078125 Z"
       id="path24"
       inkscape:connector-curvature="0" /><path
       d="m 81.11227,-16.494141 v 2.988282 H 56.590786 q 0.380859,3.6914059 2.666016,5.537109 2.285156,1.8457031 6.386718,1.8457031 3.310547,0 6.767578,-0.9667968 3.486329,-0.9960938 7.148438,-2.9882813 v 8.0859375 q -3.720703,1.40625 -7.441406,2.109375 -3.720703,0.73242188 -7.441407,0.73242188 -8.90625,0 -13.857421,-4.51171878 -4.921875,-4.5410156 -4.921875,-12.7148436 0,-8.027344 4.833984,-12.626953 4.863281,-4.59961 13.359375,-4.59961 7.734375,0 12.363281,4.658204 4.658203,4.658203 4.658203,12.451171 z m -10.78125,-3.486328 q 0,-2.988281 -1.757812,-4.804687 -1.728516,-1.845703 -4.541016,-1.845703 -3.046875,0 -4.951172,1.728515 -1.904297,1.699219 -2.373047,4.921875 z"
       id="path26"
       inkscape:connector-curvature="0" /><path
       d="m 96.425392,-14.765625 q -3.28125,0 -4.951172,1.113281 -1.640625,1.113281 -1.640625,3.28125 0,1.9921877 1.31836,3.1347659 1.347656,1.1132812 3.720703,1.1132812 2.958984,0 4.980469,-2.109375 2.021483,-2.1386721 2.021483,-5.3320311 v -1.201172 z m 16.025388,-3.955078 V 0 h -10.57617 v -4.8632812 q -2.109374,2.9882812 -4.746093,4.36523432 -2.636719,1.34765626 -6.416015,1.34765626 -5.097657,0 -8.291016,-2.95898438 -3.164063,-2.9882812 -3.164063,-7.734375 0,-5.771484 3.955079,-8.466797 3.984375,-2.695312 12.480468,-2.695312 h 6.18164 v -0.820313 q 0,-2.490234 -1.96289,-3.632812 -1.96289,-1.171875 -6.123047,-1.171875 -3.36914,0 -6.269531,0.673828 -2.90039,0.673828 -5.390625,2.021484 v -7.998047 q 3.369141,-0.820312 6.767578,-1.230468 3.398438,-0.439454 6.796875,-0.439454 8.87695,0 12.80273,3.515625 3.95508,3.486329 3.95508,11.367188 z"
       id="path28"
       inkscape:connector-curvature="0" /><path
       d="m 115.07836,-45.585937 h 10.48828 V 0 h -10.48828 z"
       id="path30"
       inkscape:connector-curvature="0" /><path
       d="m 143.21344,-42.128906 v 9.316406 h 10.81055 v 7.5 h -10.81055 v 13.916016 q 0,2.2851559 0.9082,3.1054684 Q 145.02985,-7.5 147.72516,-7.5 h 5.39062 V 0 h -8.99414 q -6.21093,0 -8.81836,-2.578125 -2.57812,-2.6074219 -2.57812,-8.818359 V -25.3125 h -5.21485 v -7.5 h 5.21485 v -9.316406 z"
       id="path32"
       inkscape:connector-curvature="0" /><path
       d="M 188.08604,-19.980469 V 0 H 177.53917 V -3.2519531 -15.234375 q 0,-4.306641 -0.20508,-5.917969 -0.17578,-1.611328 -0.64453,-2.373047 -0.61523,-1.02539 -1.66992,-1.582031 -1.05469,-0.585937 -2.40235,-0.585937 -3.28125,0 -5.15625,2.548828 -1.875,2.519531 -1.875,7.001953 V 0 h -10.48828 v -45.585937 h 10.48828 v 17.578125 q 2.37305,-2.871094 5.03907,-4.21875 2.66601,-1.376954 5.88867,-1.376954 5.68359,0 8.61328,3.486329 2.95898,3.486328 2.95898,10.136718 z"
       id="path34"
       inkscape:connector-curvature="0" /><path
       d="m 208.90651,-43.740234 h 30.43945 v 8.52539 h -19.16015 v 8.144532 h 18.01757 v 8.52539 h -18.01757 v 10.0195314 h 19.80468 V 0 h -31.08398 z"
       id="path36"
       inkscape:connector-curvature="0" /><path
       d="m 264.12198,-28.007812 v -17.578125 h 10.54687 V 0 h -10.54687 v -4.7460937 q -2.16797,2.9003906 -4.77539,4.24804682 -2.60742,1.34765626 -6.03516,1.34765626 -6.06445,0 -9.96094,-4.80468748 -3.89648,-4.8339844 -3.89648,-12.4218749 0,-7.587891 3.89648,-12.392578 3.89649,-4.833985 9.96094,-4.833985 3.39844,0 6.00586,1.376954 2.63672,1.347656 4.80469,4.21875 z m -6.91406,21.2402339 q 3.36914,0 5.12695,-2.4609375 1.78711,-2.4609374 1.78711,-7.1484374 0,-4.6875 -1.78711,-7.148438 -1.75781,-2.460937 -5.12695,-2.460937 -3.33985,0 -5.12696,2.460937 -1.75781,2.460938 -1.75781,7.148438 0,4.6875 1.75781,7.1484374 1.78711,2.4609375 5.12696,2.4609375 z"
       id="path38"
       inkscape:connector-curvature="0" /><path
       d="M 278.10541,-12.773438 V -32.8125 h 10.54687 v 3.28125 q 0,2.666016 -0.0293,6.708984 -0.0293,4.013672 -0.0293,5.361329 0,3.955078 0.20508,5.71289 0.20508,1.728516 0.70312,2.5195314 0.64453,1.0253906 1.66992,1.5820312 1.05469,0.5566407 2.40235,0.5566407 3.28125,0 5.15625,-2.5195313 1.875,-2.519531 1.875,-7.001953 V -32.8125 h 10.48828 V 0 H 300.6054 v -4.7460937 q -2.37305,2.8710937 -5.03906,4.24804682 -2.63672,1.34765626 -5.83008,1.34765626 -5.6836,0 -8.67188,-3.48632818 -2.95898,-3.4863281 -2.95898,-10.1367192 z"
       id="path40"
       inkscape:connector-curvature="0" /><path
       d="m 341.63065,-31.787109 v 8.554687 q -2.13868,-1.464844 -4.30664,-2.167969 -2.13868,-0.703125 -4.45313,-0.703125 -4.39453,0 -6.85547,2.578125 -2.43164,2.548829 -2.43164,7.148438 0,4.599609 2.43164,7.1777342 2.46094,2.5488282 6.85547,2.5488282 2.46094,0 4.6582,-0.7324219 2.22657,-0.7324219 4.10157,-2.1679688 v 8.58398442 q -2.46094,0.90820313 -5.00977,1.34765626 -2.51953,0.46875 -5.06836,0.46875 -8.87695,0 -13.88672,-4.54101568 -5.00976,-4.5703125 -5.00976,-12.6855467 0,-8.115234 5.00976,-12.65625 5.00977,-4.570313 13.88672,-4.570313 2.57813,0 5.06836,0.46875 2.51953,0.439454 5.00977,1.347657 z"
       id="path42"
       inkscape:connector-curvature="0" /><path
       d="m 356.4632,-14.765625 q -3.28125,0 -4.95118,1.113281 -1.64062,1.113281 -1.64062,3.28125 0,1.9921877 1.31836,3.1347659 1.34765,1.1132812 3.7207,1.1132812 2.95899,0 4.98047,-2.109375 2.02148,-2.1386721 2.02148,-5.3320311 v -1.201172 z m 16.02539,-3.955078 V 0 h -10.57618 v -4.8632812 q -2.10937,2.9882812 -4.74609,4.36523432 -2.63672,1.34765626 -6.41601,1.34765626 -5.09766,0 -8.29102,-2.95898438 -3.16406,-2.9882812 -3.16406,-7.734375 0,-5.771484 3.95508,-8.466797 3.98437,-2.695312 12.48046,-2.695312 h 6.18164 v -0.820313 q 0,-2.490234 -1.96289,-3.632812 -1.96289,-1.171875 -6.12304,-1.171875 -3.36914,0 -6.26953,0.673828 -2.90039,0.673828 -5.39063,2.021484 v -7.998047 q 3.36914,-0.820312 6.76758,-1.230468 3.39844,-0.439454 6.79687,-0.439454 8.87696,0 12.80274,3.515625 3.95508,3.486329 3.95508,11.367188 z"
       id="path44"
       inkscape:connector-curvature="0" /><path
       d="m 386.57126,-42.128906 v 9.316406 h 10.81055 v 7.5 h -10.81055 v 13.916016 q 0,2.2851559 0.9082,3.1054684 Q 388.38766,-7.5 391.08298,-7.5 h 5.39062 V 0 h -8.99414 q -6.21094,0 -8.81836,-2.578125 -2.57812,-2.6074219 -2.57812,-8.818359 V -25.3125 h -5.21485 v -7.5 h 5.21485 v -9.316406 z"
       id="path46"
       inkscape:connector-curvature="0" /><path
       d="m 398.45618,-32.8125 h 10.48828 V 0 h -10.48828 z m 0,-12.773437 h 10.48828 v 8.554687 h -10.48828 z"
       id="path48"
       inkscape:connector-curvature="0" /><path
       d="m 430.7514,-26.103516 q -3.48632,0 -5.33203,2.519532 -1.8164,2.490234 -1.8164,7.207031 0,4.716797 1.8164,7.236328 1.84571,2.4902344 5.33203,2.4902344 3.42774,0 5.24414,-2.4902344 1.81641,-2.519531 1.81641,-7.236328 0,-4.716797 -1.81641,-7.207031 -1.8164,-2.519532 -5.24414,-2.519532 z m 0,-7.5 q 8.4668,0 13.21289,4.570313 4.7754,4.570312 4.7754,12.65625 0,8.0859374 -4.7754,12.6562499 -4.74609,4.57031248 -13.21289,4.57031248 -8.49609,0 -13.30078,-4.57031248 -4.77539,-4.5703125 -4.77539,-12.6562499 0,-8.085938 4.77539,-12.65625 4.80469,-4.570313 13.30078,-4.570313 z"
       id="path50"
       inkscape:connector-curvature="0" /><path
       d="M 484.78369,-19.980469 V 0 H 474.23682 V -3.2519531 -15.292969 q 0,-4.248047 -0.20508,-5.859375 -0.17578,-1.611328 -0.64453,-2.373047 -0.61524,-1.02539 -1.66992,-1.582031 -1.05469,-0.585937 -2.40235,-0.585937 -3.28125,0 -5.15625,2.548828 -1.875,2.519531 -1.875,7.001953 V 0 h -10.48828 v -32.8125 h 10.48828 v 4.804688 q 2.37305,-2.871094 5.03906,-4.21875 2.66602,-1.376954 5.88868,-1.376954 5.68359,0 8.61328,3.486329 2.95898,3.486328 2.95898,10.136718 z"
       id="path52"
       inkscape:connector-curvature="0" /><path
       d="m 505.60416,-43.740234 h 30.43945 v 8.52539 h -19.16016 v 8.144532 h 18.01758 v 8.52539 h -18.01758 v 10.0195314 h 19.80469 V 0 h -31.08398 z"
       id="path54"
       inkscape:connector-curvature="0" /><path
       d="M 571.4837,-19.980469 V 0 H 560.93683 V -3.2519531 -15.292969 q 0,-4.248047 -0.20508,-5.859375 -0.17578,-1.611328 -0.64453,-2.373047 -0.61524,-1.02539 -1.66992,-1.582031 -1.05469,-0.585937 -2.40235,-0.585937 -3.28125,0 -5.15625,2.548828 -1.875,2.519531 -1.875,7.001953 V 0 h -10.48828 v -32.8125 h 10.48828 v 4.804688 q 2.37305,-2.871094 5.03907,-4.21875 2.66601,-1.376954 5.88867,-1.376954 5.68359,0 8.61328,3.486329 2.95898,3.486328 2.95898,10.136718 z"
       id="path56"
       inkscape:connector-curvature="0" /><path
       d="m 597.47876,-5.5664062 q -2.16797,2.8710937 -4.77539,4.21875 Q 590.09595,0 586.66821,0 q -6.00586,0 -9.93164,-4.7167969 -3.92578,-4.7460937 -3.92578,-12.0703121 0,-7.353516 3.92578,-12.041016 3.92578,-4.716797 9.93164,-4.716797 3.42774,0 6.03516,1.347656 2.60742,1.347657 4.77539,4.248047 V -32.8125 h 10.54687 v 29.5019531 q 0,7.9101563 -5.00976,12.0703125 -4.98047,4.1894534 -14.47266,4.1894534 -3.07617,0 -5.94726,-0.46875 -2.8711,-0.46875 -5.77149,-1.435547 V 2.8710938 q 2.75391,1.5820312 5.39063,2.3437499 2.63672,0.7910157 5.30273,0.7910157 5.15625,0 7.5586,-2.2558594 2.40234,-2.2558594 2.40234,-7.0605469 z M 590.5647,-25.986328 q -3.25196,0 -5.06836,2.402344 -1.81641,2.402343 -1.81641,6.796875 0,4.511718 1.75781,6.8554684 1.75782,2.3144531 5.12696,2.3144531 3.28125,0 5.09765,-2.4023435 1.81641,-2.402344 1.81641,-6.767578 0,-4.394532 -1.81641,-6.796875 -1.8164,-2.402344 -5.09765,-2.402344 z"
       id="path58"
       inkscape:connector-curvature="0" /><path
       d="m 611.81458,-45.585937 h 10.48828 V 0 h -10.48828 z"
       id="path60"
       inkscape:connector-curvature="0" /><path
       d="m 643.2016,-14.765625 q -3.28125,0 -4.95117,1.113281 -1.64063,1.113281 -1.64063,3.28125 0,1.9921877 1.31836,3.1347659 1.34766,1.1132812 3.7207,1.1132812 2.95899,0 4.98047,-2.109375 2.02149,-2.1386721 2.02149,-5.3320311 v -1.201172 z m 16.02539,-3.955078 V 0 h -10.57617 v -4.8632812 q -2.10938,2.9882812 -4.7461,4.36523432 -2.63671,1.34765626 -6.41601,1.34765626 -5.09766,0 -8.29102,-2.95898438 -3.16406,-2.9882812 -3.16406,-7.734375 0,-5.771484 3.95508,-8.466797 3.98437,-2.695312 12.48047,-2.695312 h 6.18164 v -0.820313 q 0,-2.490234 -1.96289,-3.632812 -1.96289,-1.171875 -6.12305,-1.171875 -3.36914,0 -6.26953,0.673828 -2.90039,0.673828 -5.39063,2.021484 v -7.998047 q 3.36914,-0.820312 6.76758,-1.230468 3.39844,-0.439454 6.79688,-0.439454 8.87695,0 12.80273,3.515625 3.95508,3.486329 3.95508,11.367188 z"
       id="path62"
       inkscape:connector-curvature="0" /><path
       d="M 694.84229,-19.980469 V 0 H 684.29541 V -3.2519531 -15.292969 q 0,-4.248047 -0.20508,-5.859375 -0.17578,-1.611328 -0.64453,-2.373047 -0.61523,-1.02539 -1.66992,-1.582031 -1.05469,-0.585937 -2.40234,-0.585937 -3.28125,0 -5.15625,2.548828 -1.875,2.519531 -1.875,7.001953 V 0 H 661.854 v -32.8125 h 10.48829 v 4.804688 q 2.37304,-2.871094 5.03906,-4.21875 2.66601,-1.376954 5.88867,-1.376954 5.68359,0 8.61328,3.486329 2.95899,3.486328 2.95899,10.136718 z"
       id="path64"
       inkscape:connector-curvature="0" /><path
       d="m 720.8382,-28.007812 v -17.578125 h 10.54687 V 0 H 720.8382 v -4.7460937 q -2.16797,2.9003906 -4.77539,4.24804682 -2.60743,1.34765626 -6.03516,1.34765626 -6.06445,0 -9.96094,-4.80468748 -3.89648,-4.8339844 -3.89648,-12.4218749 0,-7.587891 3.89648,-12.392578 3.89649,-4.833985 9.96094,-4.833985 3.39844,0 6.00586,1.376954 2.63672,1.347656 4.80469,4.21875 z m -6.91407,21.2402339 q 3.36914,0 5.12696,-2.4609375 1.78711,-2.4609374 1.78711,-7.1484374 0,-4.6875 -1.78711,-7.148438 -1.75782,-2.460937 -5.12696,-2.460937 -3.33984,0 -5.12695,2.460937 -1.75781,2.460938 -1.75781,7.148438 0,4.6875 1.75781,7.1484374 1.78711,2.4609375 5.12695,2.4609375 z"
       id="path66"
       inkscape:connector-curvature="0" /></g></g></svg>