<?xml version="1.0" encoding="UTF-8" standalone="no"?>
<svg
   xmlns:dc="http://purl.org/dc/elements/1.1/"
   xmlns:cc="http://creativecommons.org/ns#"
   xmlns:rdf="http://www.w3.org/1999/02/22-rdf-syntax-ns#"
   xmlns:svg="http://www.w3.org/2000/svg"
   xmlns="http://www.w3.org/2000/svg"
   xml:space="preserve"
   width="16px"
   viewBox="0 0 16 16"
   version="1.1"
   style="enable-background:new 0 0 16 16;"
   id="Layer_1"
   height="16px"><metadata
     id="metadata3738"><rdf:RDF><cc:Work
         rdf:about=""><dc:format>image/svg+xml</dc:format><dc:type
           rdf:resource="http://purl.org/dc/dcmitype/StillImage" /><dc:title></dc:title></cc:Work></rdf:RDF></metadata><defs
     id="defs3736" /><path
     id="path3731"
     d="M 15.45,7 C 13.284907,4.8667114 11.15027,2.7031192 9,0.555 8.727,0.297 8.477,0 8,0 7.523,0 7.273,0.297 7,0.555 L 0.55,7 C 0.238,7.325 0,7.562 0,8 0,8.563 0.432,9 1,9 h 1 v 7 H 6 V 9.4958678 c 2.2692475,-0.01328 1.7106562,-0.005 4,0 V 16 c 1.137173,0.03816 3.777795,0.0032 4,0.0041 V 9 h 1 C 15.568,9 16,8.563 16,8 16,7.562 15.762,7.325 15.45,7 Z" /></svg>